<svg xmlns="http://www.w3.org/2000/svg" width="84.671" height="73.5" viewBox="0 0 84.671 73.5">
  <g id="Groupe_244" data-name="Groupe 244" transform="translate(-34 -7.722)">
    <path id="Tracé_8" data-name="Tracé 8" d="M87.159,34.345H58.431V23.761a1.512,1.512,0,0,0-1.512-1.512h-10.8c-1.143-19.355-28.652-19.384-29.81,0H5.512A1.512,1.512,0,0,0,4,23.761V72.144a1.512,1.512,0,0,0,1.512,1.512H14.72a9.06,9.06,0,0,0,17.872,0c4.575,0,26.423,0,30.512,0a9.072,9.072,0,0,0,17.871,0h6.184a1.512,1.512,0,0,0,1.512-1.512V35.855a1.512,1.512,0,0,0-1.512-1.512ZM85.647,52.488h-12.1V37.369h12.1ZM31.216,10.667a11.911,11.911,0,0,1,11.9,11.9c0,6.92-8.68,19.126-11.9,23.416-3.219-4.289-11.9-16.5-11.9-23.416a11.911,11.911,0,0,1,11.9-11.9ZM16.595,25.273c1.958,9.648,12.927,23.5,13.438,24.139a1.515,1.515,0,0,0,2.365,0c.511-.641,11.48-14.491,13.438-24.14h9.571V57.023H7.024V25.271ZM7.024,60.048H55.407V70.632H32.591a9.06,9.06,0,0,0-17.872,0h-7.7ZM23.656,78.192A6.048,6.048,0,1,1,29.7,72.144,6.048,6.048,0,0,1,23.656,78.192Zm48.383,0a6.048,6.048,0,1,1,6.048-6.048A6.048,6.048,0,0,1,72.039,78.192Zm8.936-7.56a9.072,9.072,0,0,0-17.872,0H58.431V37.369h12.1V54a1.512,1.512,0,0,0,1.512,1.512H85.647v3.024H81.111a1.512,1.512,0,1,0,0,3.024h4.536v9.072Z" transform="translate(30)"/>
    <path id="Tracé_9" data-name="Tracé 9" d="M33.31,20.375c-.355-11.166-16.544-11.163-16.9,0C16.767,31.541,32.956,31.538,33.31,20.375Zm-13.874,0A5.425,5.425,0,1,1,24.861,25.8,5.425,5.425,0,0,1,19.436,20.375Z" transform="translate(36.355 2.191)"/>
  </g>
</svg>
