<svg id="Layer_2" data-name="Layer 2" xmlns="http://www.w3.org/2000/svg" width="91.876" height="73.5" viewBox="0 0 91.876 73.5">
  <path id="Tracé_6" data-name="Tracé 6" d="M92.222,10.982,73.846,3.632a1.838,1.838,0,0,0-1.367,0L54.1,10.982a1.838,1.838,0,0,0-1.154,1.705V31.68a20.319,20.319,0,0,0,9.816,17.339l9.452,5.671a1.838,1.838,0,0,0,1.889,0l8.243-4.947v20.58a3.017,3.017,0,0,1-3.014,3.014H8.189a3.017,3.017,0,0,1-3.014-3.014v-41.1H47.438a1.838,1.838,0,1,0,0-3.675H5.175V21.213A3.017,3.017,0,0,1,8.189,18.2H47.438a1.838,1.838,0,1,0,0-3.675H8.189A6.692,6.692,0,0,0,1.5,21.213v49.1A6.692,6.692,0,0,0,8.189,77H79.337a6.692,6.692,0,0,0,6.689-6.689V47.232a20.319,20.319,0,0,0,7.35-15.56V12.687a1.837,1.837,0,0,0-1.154-1.705ZM89.7,31.68a16.618,16.618,0,0,1-8.034,14.186l-8.5,5.1-8.5-5.1A16.618,16.618,0,0,1,56.625,31.68V13.929L73.163,7.314,89.7,13.929Z" transform="translate(-1.5 -3.5)"/>
  <path id="Tracé_7" data-name="Tracé 7" d="M59.089,13.693a1.839,1.839,0,1,0-2.6,2.6l4.9,4.9a1.838,1.838,0,0,0,2.6,0l9.8-9.8a1.839,1.839,0,1,0-2.6-2.6l-8.5,8.5ZM6.338,49.591a1.838,1.838,0,0,0,0,3.675h14.7a1.838,1.838,0,0,0,0-3.675Z" transform="translate(6.525 9.209)"/>
</svg>
