<svg width="180" height="50" viewBox="0 0 180 50" fill="none" xmlns="http://www.w3.org/2000/svg">
<path d="M150 0H30C13.4315 0 0 11.1929 0 25C0 38.8071 13.4315 50 30 50H150C166.569 50 180 38.8071 180 25C180 11.1929 166.569 0 150 0Z" fill="#3B5998"/>
<path d="M46.0219 13.005L42.8399 13C39.2649 13 36.9549 15.37 36.9549 19.039V21.823H33.7549C33.6223 21.823 33.4951 21.8757 33.4013 21.9694C33.3076 22.0632 33.2549 22.1904 33.2549 22.323V26.357C33.2549 26.4896 33.3076 26.6168 33.4013 26.7106C33.4951 26.8043 33.6223 26.857 33.7549 26.857H36.9549V37.037C36.9549 37.1696 37.0076 37.2968 37.1013 37.3906C37.1951 37.4843 37.3223 37.537 37.4549 37.537H41.6289C41.7615 37.537 41.8887 37.4843 41.9824 37.3906C42.0762 37.2968 42.1289 37.1696 42.1289 37.037V26.858H45.8699C46.0025 26.858 46.1297 26.8053 46.2234 26.7116C46.3172 26.6178 46.3699 26.4906 46.3699 26.358V22.324C46.3699 22.1914 46.3172 22.0642 46.2234 21.9704C46.1297 21.8767 46.0025 21.824 45.8699 21.824H42.1299V19.463C42.1299 18.329 42.3999 17.753 43.8779 17.753H46.0219C46.1545 17.753 46.2817 17.7003 46.3754 17.6066C46.4692 17.5128 46.5219 17.3856 46.5219 17.253V13.505C46.5219 13.3724 46.4692 13.2452 46.3754 13.1514C46.2817 13.0577 46.1545 13.005 46.0219 13.005Z" fill="white"/>
<path d="M79.2581 19.103V20.525H73.0661V25.034H78.3581V26.456H73.0661V32H71.3111V19.103H79.2581ZM87.9504 32H87.2394C87.0834 32 86.9574 31.976 86.8614 31.928C86.7654 31.88 86.7024 31.778 86.6724 31.622L86.4924 30.776C86.2524 30.992 86.0184 31.187 85.7904 31.361C85.5624 31.529 85.3224 31.673 85.0704 31.793C84.8184 31.907 84.5484 31.994 84.2604 32.054C83.9784 32.114 83.6634 32.144 83.3154 32.144C82.9614 32.144 82.6284 32.096 82.3164 32C82.0104 31.898 81.7434 31.748 81.5154 31.55C81.2874 31.352 81.1044 31.103 80.9664 30.803C80.8344 30.497 80.7684 30.137 80.7684 29.723C80.7684 29.363 80.8674 29.018 81.0654 28.688C81.2634 28.352 81.5814 28.055 82.0194 27.797C82.4634 27.539 83.0424 27.329 83.7564 27.167C84.4704 26.999 85.3434 26.903 86.3754 26.879V26.168C86.3754 25.46 86.2224 24.926 85.9164 24.566C85.6164 24.2 85.1694 24.017 84.5754 24.017C84.1854 24.017 83.8554 24.068 83.5854 24.17C83.3214 24.266 83.0904 24.377 82.8924 24.503C82.7004 24.623 82.5324 24.734 82.3884 24.836C82.2504 24.932 82.1124 24.98 81.9744 24.98C81.8664 24.98 81.7704 24.953 81.6864 24.899C81.6084 24.839 81.5454 24.767 81.4974 24.683L81.2094 24.17C81.7134 23.684 82.2564 23.321 82.8384 23.081C83.4204 22.841 84.0654 22.721 84.7734 22.721C85.2834 22.721 85.7364 22.805 86.1324 22.973C86.5284 23.141 86.8614 23.375 87.1314 23.675C87.4014 23.975 87.6054 24.338 87.7434 24.764C87.8814 25.19 87.9504 25.658 87.9504 26.168V32ZM83.7924 31.019C84.0744 31.019 84.3324 30.992 84.5664 30.938C84.8004 30.878 85.0194 30.797 85.2234 30.695C85.4334 30.587 85.6314 30.458 85.8174 30.308C86.0094 30.158 86.1954 29.987 86.3754 29.795V27.896C85.6374 27.92 85.0104 27.98 84.4944 28.076C83.9784 28.166 83.5584 28.286 83.2344 28.436C82.9104 28.586 82.6734 28.763 82.5234 28.967C82.3794 29.171 82.3074 29.399 82.3074 29.651C82.3074 29.891 82.3464 30.098 82.4244 30.272C82.5024 30.446 82.6074 30.59 82.7394 30.704C82.8714 30.812 83.0274 30.893 83.2074 30.947C83.3874 30.995 83.5824 31.019 83.7924 31.019ZM96.5965 24.503C96.5485 24.569 96.5005 24.62 96.4525 24.656C96.4045 24.692 96.3355 24.71 96.2455 24.71C96.1555 24.71 96.0565 24.674 95.9485 24.602C95.8465 24.524 95.7145 24.44 95.5525 24.35C95.3905 24.26 95.1925 24.179 94.9585 24.107C94.7305 24.029 94.4485 23.99 94.1125 23.99C93.6685 23.99 93.2755 24.071 92.9335 24.233C92.5915 24.389 92.3035 24.617 92.0695 24.917C91.8415 25.217 91.6675 25.58 91.5475 26.006C91.4335 26.432 91.3765 26.909 91.3765 27.437C91.3765 27.989 91.4395 28.481 91.5655 28.913C91.6915 29.339 91.8685 29.699 92.0965 29.993C92.3245 30.281 92.6005 30.503 92.9245 30.659C93.2545 30.809 93.6235 30.884 94.0315 30.884C94.4215 30.884 94.7425 30.839 94.9945 30.749C95.2465 30.653 95.4565 30.548 95.6245 30.434C95.7925 30.32 95.9305 30.218 96.0385 30.128C96.1465 30.032 96.2545 29.984 96.3625 29.984C96.5005 29.984 96.6025 30.035 96.6685 30.137L97.1185 30.722C96.7225 31.208 96.2275 31.565 95.6335 31.793C95.0395 32.015 94.4125 32.126 93.7525 32.126C93.1825 32.126 92.6515 32.021 92.1595 31.811C91.6735 31.601 91.2505 31.298 90.8905 30.902C90.5305 30.5 90.2455 30.008 90.0355 29.426C89.8315 28.844 89.7295 28.181 89.7295 27.437C89.7295 26.759 89.8225 26.132 90.0085 25.556C90.2005 24.98 90.4765 24.485 90.8365 24.071C91.2025 23.651 91.6525 23.324 92.1865 23.09C92.7205 22.856 93.3325 22.739 94.0225 22.739C94.6585 22.739 95.2225 22.844 95.7145 23.054C96.2065 23.258 96.6415 23.549 97.0195 23.927L96.5965 24.503ZM102.389 22.739C102.935 22.739 103.439 22.832 103.901 23.018C104.363 23.198 104.762 23.462 105.098 23.81C105.434 24.152 105.695 24.578 105.881 25.088C106.073 25.592 106.169 26.168 106.169 26.816C106.169 27.068 106.142 27.236 106.088 27.32C106.034 27.404 105.932 27.446 105.782 27.446H99.7158C99.7278 28.022 99.8058 28.523 99.9498 28.949C100.094 29.375 100.292 29.732 100.544 30.02C100.796 30.302 101.096 30.515 101.444 30.659C101.792 30.797 102.182 30.866 102.614 30.866C103.016 30.866 103.361 30.821 103.649 30.731C103.943 30.635 104.195 30.533 104.405 30.425C104.615 30.317 104.789 30.218 104.927 30.128C105.071 30.032 105.194 29.984 105.296 29.984C105.428 29.984 105.53 30.035 105.602 30.137L106.052 30.722C105.854 30.962 105.617 31.172 105.341 31.352C105.065 31.526 104.768 31.67 104.45 31.784C104.138 31.898 103.814 31.982 103.478 32.036C103.142 32.096 102.809 32.126 102.479 32.126C101.849 32.126 101.267 32.021 100.733 31.811C100.205 31.595 99.7458 31.283 99.3558 30.875C98.9718 30.461 98.6718 29.951 98.4558 29.345C98.2398 28.739 98.1318 28.043 98.1318 27.257C98.1318 26.621 98.2278 26.027 98.4198 25.475C98.6178 24.923 98.8998 24.446 99.2658 24.044C99.6318 23.636 100.079 23.318 100.607 23.09C101.135 22.856 101.729 22.739 102.389 22.739ZM102.425 23.918C101.651 23.918 101.042 24.143 100.598 24.593C100.154 25.037 99.8778 25.655 99.7698 26.447H104.729C104.729 26.075 104.678 25.736 104.576 25.43C104.474 25.118 104.324 24.851 104.126 24.629C103.928 24.401 103.685 24.227 103.397 24.107C103.115 23.981 102.791 23.918 102.425 23.918ZM108.273 32V18.743H109.884V24.197C110.262 23.759 110.694 23.408 111.18 23.144C111.672 22.874 112.233 22.739 112.863 22.739C113.391 22.739 113.868 22.838 114.294 23.036C114.72 23.234 115.083 23.531 115.383 23.927C115.683 24.317 115.914 24.803 116.076 25.385C116.238 25.961 116.319 26.627 116.319 27.383C116.319 28.055 116.229 28.682 116.049 29.264C115.869 29.84 115.608 30.341 115.266 30.767C114.93 31.187 114.516 31.52 114.024 31.766C113.538 32.006 112.989 32.126 112.377 32.126C111.789 32.126 111.288 32.012 110.874 31.784C110.466 31.556 110.109 31.238 109.803 30.83L109.722 31.658C109.674 31.886 109.536 32 109.308 32H108.273ZM112.341 24.017C111.819 24.017 111.36 24.137 110.964 24.377C110.574 24.617 110.214 24.956 109.884 25.394V29.804C110.172 30.2 110.49 30.479 110.838 30.641C111.192 30.803 111.585 30.884 112.017 30.884C112.869 30.884 113.523 30.581 113.979 29.975C114.435 29.369 114.663 28.505 114.663 27.383C114.663 26.789 114.609 26.279 114.501 25.853C114.399 25.427 114.249 25.079 114.051 24.809C113.853 24.533 113.61 24.332 113.322 24.206C113.034 24.08 112.707 24.017 112.341 24.017ZM121.964 22.739C122.63 22.739 123.23 22.85 123.764 23.072C124.304 23.294 124.76 23.609 125.132 24.017C125.51 24.425 125.798 24.92 125.996 25.502C126.2 26.078 126.302 26.723 126.302 27.437C126.302 28.157 126.2 28.805 125.996 29.381C125.798 29.957 125.51 30.449 125.132 30.857C124.76 31.265 124.304 31.58 123.764 31.802C123.23 32.018 122.63 32.126 121.964 32.126C121.298 32.126 120.695 32.018 120.155 31.802C119.621 31.58 119.165 31.265 118.787 30.857C118.409 30.449 118.118 29.957 117.914 29.381C117.71 28.805 117.608 28.157 117.608 27.437C117.608 26.723 117.71 26.078 117.914 25.502C118.118 24.92 118.409 24.425 118.787 24.017C119.165 23.609 119.621 23.294 120.155 23.072C120.695 22.85 121.298 22.739 121.964 22.739ZM121.964 30.875C122.864 30.875 123.536 30.575 123.98 29.975C124.424 29.369 124.646 28.526 124.646 27.446C124.646 26.36 124.424 25.514 123.98 24.908C123.536 24.302 122.864 23.999 121.964 23.999C121.508 23.999 121.112 24.077 120.776 24.233C120.44 24.389 120.158 24.614 119.93 24.908C119.708 25.202 119.54 25.565 119.426 25.997C119.318 26.423 119.264 26.906 119.264 27.446C119.264 27.986 119.318 28.469 119.426 28.895C119.54 29.321 119.708 29.681 119.93 29.975C120.158 30.263 120.44 30.485 120.776 30.641C121.112 30.797 121.508 30.875 121.964 30.875ZM131.966 22.739C132.632 22.739 133.232 22.85 133.766 23.072C134.306 23.294 134.762 23.609 135.134 24.017C135.512 24.425 135.8 24.92 135.998 25.502C136.202 26.078 136.304 26.723 136.304 27.437C136.304 28.157 136.202 28.805 135.998 29.381C135.8 29.957 135.512 30.449 135.134 30.857C134.762 31.265 134.306 31.58 133.766 31.802C133.232 32.018 132.632 32.126 131.966 32.126C131.3 32.126 130.697 32.018 130.157 31.802C129.623 31.58 129.167 31.265 128.789 30.857C128.411 30.449 128.12 29.957 127.916 29.381C127.712 28.805 127.61 28.157 127.61 27.437C127.61 26.723 127.712 26.078 127.916 25.502C128.12 24.92 128.411 24.425 128.789 24.017C129.167 23.609 129.623 23.294 130.157 23.072C130.697 22.85 131.3 22.739 131.966 22.739ZM131.966 30.875C132.866 30.875 133.538 30.575 133.982 29.975C134.426 29.369 134.648 28.526 134.648 27.446C134.648 26.36 134.426 25.514 133.982 24.908C133.538 24.302 132.866 23.999 131.966 23.999C131.51 23.999 131.114 24.077 130.778 24.233C130.442 24.389 130.16 24.614 129.932 24.908C129.71 25.202 129.542 25.565 129.428 25.997C129.32 26.423 129.266 26.906 129.266 27.446C129.266 27.986 129.32 28.469 129.428 28.895C129.542 29.321 129.71 29.681 129.932 29.975C130.16 30.263 130.442 30.485 130.778 30.641C131.114 30.797 131.51 30.875 131.966 30.875ZM139.943 18.743V26.546H140.357C140.477 26.546 140.576 26.531 140.654 26.501C140.732 26.465 140.819 26.396 140.915 26.294L143.795 23.207C143.885 23.111 143.975 23.033 144.065 22.973C144.155 22.913 144.275 22.883 144.425 22.883H145.883L142.526 26.456C142.442 26.558 142.358 26.648 142.274 26.726C142.196 26.804 142.106 26.873 142.004 26.933C142.112 27.005 142.208 27.089 142.292 27.185C142.382 27.275 142.466 27.38 142.544 27.5L146.108 32H144.668C144.536 32 144.422 31.976 144.326 31.928C144.236 31.874 144.149 31.793 144.065 31.685L141.068 27.95C140.978 27.824 140.888 27.743 140.798 27.707C140.708 27.665 140.573 27.644 140.393 27.644H139.943V32H138.332V18.743H139.943Z" fill="white"/>
</svg>
