<svg width="180" height="52" viewBox="0 0 180 52" fill="none" xmlns="http://www.w3.org/2000/svg">
<path d="M150 1H30C13.4315 1 0 12.1929 0 26C0 39.8071 13.4315 51 30 51H150C166.569 51 180 39.8071 180 26C180 12.1929 166.569 1 150 1Z" fill="white"/>
<path d="M150 1.41666H30C13.7076 1.41666 0.5 12.423 0.5 26C0.5 39.577 13.7076 50.5833 30 50.5833H150C166.292 50.5833 179.5 39.577 179.5 26C179.5 12.423 166.292 1.41666 150 1.41666Z" stroke="#F1584D"/>
<path d="M69.4175 19.249L67.6995 36.496H47.0705L45.6865 19.583L57.3865 26.133L69.4175 19.249Z" fill="#F2F2F2"/>
<path d="M68.8345 16L57.3855 26.756L45.9355 16H68.8345Z" fill="#F2F2F2"/>
<path d="M47.0706 20.966V36.495H45.2006C44.8644 36.4947 44.542 36.3611 44.3043 36.1233C44.0666 35.8856 43.9329 35.5632 43.9326 35.227V18.679L45.9816 18.735L47.0706 20.966Z" fill="#F14336"/>
<path d="M70.8372 18.68V35.228C70.837 35.5644 70.7031 35.8869 70.4652 36.1247C70.2272 36.3624 69.9046 36.496 69.5682 36.496H67.6992V20.966L68.7342 18.521L70.8372 18.68Z" fill="#D32E2A"/>
<path d="M70.8376 17.268V18.679L67.6996 20.966L57.3856 28.484L47.0706 20.966L43.9326 18.679V17.268C43.9329 16.9318 44.0666 16.6094 44.3043 16.3717C44.542 16.1339 44.8644 16.0003 45.2006 16H45.9326L57.3826 24.345L68.8326 16H69.5666C69.7333 15.9997 69.8985 16.0323 70.0526 16.0959C70.2068 16.1595 70.3468 16.2529 70.4649 16.3706C70.5829 16.4884 70.6766 16.6282 70.7405 16.7822C70.8045 16.9362 70.8375 17.1013 70.8376 17.268Z" fill="#F14336"/>
<path d="M47.0706 20.966L43.9326 20.48V18.68L47.0706 20.966Z" fill="#D32E2A"/>
<path d="M97.3854 31.731C97.7334 31.731 98.0514 31.716 98.3394 31.686C98.6334 31.65 98.9094 31.599 99.1674 31.533C99.4254 31.467 99.6684 31.389 99.8964 31.299C100.124 31.203 100.352 31.095 100.58 30.975V28.131H98.5824C98.4684 28.131 98.3754 28.098 98.3034 28.032C98.2374 27.966 98.2044 27.885 98.2044 27.789V26.799H102.164V31.749C101.84 31.983 101.501 32.187 101.147 32.361C100.799 32.535 100.424 32.682 100.022 32.802C99.6264 32.916 99.2004 33 98.7444 33.054C98.2884 33.114 97.7934 33.144 97.2594 33.144C96.3234 33.144 95.4654 32.985 94.6854 32.667C93.9054 32.343 93.2334 31.893 92.6694 31.317C92.1054 30.735 91.6644 30.039 91.3464 29.229C91.0344 28.419 90.8784 27.528 90.8784 26.556C90.8784 25.572 91.0314 24.675 91.3374 23.865C91.6494 23.055 92.0904 22.362 92.6604 21.786C93.2364 21.204 93.9294 20.754 94.7394 20.436C95.5554 20.118 96.4674 19.959 97.4754 19.959C97.9854 19.959 98.4594 19.998 98.8974 20.076C99.3354 20.148 99.7404 20.256 100.112 20.4C100.49 20.538 100.838 20.709 101.156 20.913C101.474 21.111 101.771 21.336 102.047 21.588L101.552 22.38C101.45 22.542 101.318 22.623 101.156 22.623C101.06 22.623 100.955 22.59 100.841 22.524C100.691 22.44 100.523 22.338 100.337 22.218C100.151 22.098 99.9234 21.984 99.6534 21.876C99.3894 21.762 99.0744 21.666 98.7084 21.588C98.3484 21.51 97.9194 21.471 97.4214 21.471C96.6954 21.471 96.0384 21.591 95.4504 21.831C94.8624 22.065 94.3614 22.404 93.9474 22.848C93.5334 23.286 93.2154 23.82 92.9934 24.45C92.7714 25.074 92.6604 25.776 92.6604 26.556C92.6604 27.372 92.7744 28.101 93.0024 28.743C93.2364 29.379 93.5634 29.919 93.9834 30.363C94.4034 30.807 94.9014 31.146 95.4774 31.38C96.0534 31.614 96.6894 31.731 97.3854 31.731ZM104.601 33V23.883H105.555C105.783 23.883 105.927 23.994 105.987 24.216L106.104 25.152C106.44 24.738 106.815 24.399 107.229 24.135C107.649 23.871 108.135 23.739 108.687 23.739C109.305 23.739 109.803 23.91 110.181 24.252C110.565 24.594 110.841 25.056 111.009 25.638C111.135 25.308 111.3 25.023 111.504 24.783C111.714 24.543 111.948 24.345 112.206 24.189C112.464 24.033 112.737 23.919 113.025 23.847C113.319 23.775 113.616 23.739 113.916 23.739C114.396 23.739 114.822 23.817 115.194 23.973C115.572 24.123 115.89 24.345 116.148 24.639C116.412 24.933 116.613 25.296 116.751 25.728C116.889 26.154 116.958 26.643 116.958 27.195V33H115.356V27.195C115.356 26.481 115.2 25.941 114.888 25.575C114.576 25.203 114.123 25.017 113.529 25.017C113.265 25.017 113.013 25.065 112.773 25.161C112.539 25.251 112.332 25.386 112.152 25.566C111.972 25.746 111.828 25.974 111.72 26.25C111.618 26.52 111.567 26.835 111.567 27.195V33H109.965V27.195C109.965 26.463 109.818 25.917 109.524 25.557C109.23 25.197 108.801 25.017 108.237 25.017C107.841 25.017 107.472 25.125 107.13 25.341C106.794 25.551 106.485 25.839 106.203 26.205V33H104.601ZM126.08 33H125.369C125.213 33 125.087 32.976 124.991 32.928C124.895 32.88 124.832 32.778 124.802 32.622L124.622 31.776C124.382 31.992 124.148 32.187 123.92 32.361C123.692 32.529 123.452 32.673 123.2 32.793C122.948 32.907 122.678 32.994 122.39 33.054C122.108 33.114 121.793 33.144 121.445 33.144C121.091 33.144 120.758 33.096 120.446 33C120.14 32.898 119.873 32.748 119.645 32.55C119.417 32.352 119.234 32.103 119.096 31.803C118.964 31.497 118.898 31.137 118.898 30.723C118.898 30.363 118.997 30.018 119.195 29.688C119.393 29.352 119.711 29.055 120.149 28.797C120.593 28.539 121.172 28.329 121.886 28.167C122.6 27.999 123.473 27.903 124.505 27.879V27.168C124.505 26.46 124.352 25.926 124.046 25.566C123.746 25.2 123.299 25.017 122.705 25.017C122.315 25.017 121.985 25.068 121.715 25.17C121.451 25.266 121.22 25.377 121.022 25.503C120.83 25.623 120.662 25.734 120.518 25.836C120.38 25.932 120.242 25.98 120.104 25.98C119.996 25.98 119.9 25.953 119.816 25.899C119.738 25.839 119.675 25.767 119.627 25.683L119.339 25.17C119.843 24.684 120.386 24.321 120.968 24.081C121.55 23.841 122.195 23.721 122.903 23.721C123.413 23.721 123.866 23.805 124.262 23.973C124.658 24.141 124.991 24.375 125.261 24.675C125.531 24.975 125.735 25.338 125.873 25.764C126.011 26.19 126.08 26.658 126.08 27.168V33ZM121.922 32.019C122.204 32.019 122.462 31.992 122.696 31.938C122.93 31.878 123.149 31.797 123.353 31.695C123.563 31.587 123.761 31.458 123.947 31.308C124.139 31.158 124.325 30.987 124.505 30.795V28.896C123.767 28.92 123.14 28.98 122.624 29.076C122.108 29.166 121.688 29.286 121.364 29.436C121.04 29.586 120.803 29.763 120.653 29.967C120.509 30.171 120.437 30.399 120.437 30.651C120.437 30.891 120.476 31.098 120.554 31.272C120.632 31.446 120.737 31.59 120.869 31.704C121.001 31.812 121.157 31.893 121.337 31.947C121.517 31.995 121.712 32.019 121.922 32.019ZM130.289 23.883V33H128.687V23.883H130.289ZM130.649 21.021C130.649 21.177 130.616 21.324 130.55 21.462C130.49 21.594 130.406 21.714 130.298 21.822C130.196 21.924 130.076 22.005 129.938 22.065C129.8 22.125 129.653 22.155 129.497 22.155C129.341 22.155 129.194 22.125 129.056 22.065C128.924 22.005 128.804 21.924 128.696 21.822C128.594 21.714 128.513 21.594 128.453 21.462C128.393 21.324 128.363 21.177 128.363 21.021C128.363 20.865 128.393 20.718 128.453 20.58C128.513 20.436 128.594 20.313 128.696 20.211C128.804 20.103 128.924 20.019 129.056 19.959C129.194 19.899 129.341 19.869 129.497 19.869C129.653 19.869 129.8 19.899 129.938 19.959C130.076 20.019 130.196 20.103 130.298 20.211C130.406 20.313 130.49 20.436 130.55 20.58C130.616 20.718 130.649 20.865 130.649 21.021ZM134.895 19.743V33H133.293V19.743H134.895Z" fill="black"/>
</svg>
