<svg xmlns="http://www.w3.org/2000/svg" width="80.18" height="73.5" viewBox="0 0 80.18 73.5">
  <g id="Groupe_243" data-name="Groupe 243" transform="translate(0 -2)">
    <path id="Tracé_4" data-name="Tracé 4" d="M36.75,75.5A36.75,36.75,0,1,1,56.575,7.81a1.671,1.671,0,0,1-1.8,2.813A33.406,33.406,0,1,0,70.159,38.75q0-1.654-.157-3.261a1.67,1.67,0,0,1,3.324-.324c.114,1.179.174,2.375.174,3.585A36.793,36.793,0,0,1,36.75,75.5Z"/>
    <path id="Tracé_5" data-name="Tracé 5" d="M24.206,43.342a1.677,1.677,0,0,1-1.183-.488L7.989,27.82a1.67,1.67,0,1,1,2.362-2.362L24.2,39.31,59.773,3.739A1.67,1.67,0,1,1,62.135,6.1l-36.75,36.75a1.654,1.654,0,0,1-1.179.491Z" transform="translate(17.556 2.925)"/>
  </g>
</svg>
